PathFileType	4	(X/Y/Z)	C:/Users/opensim2020/Desktop/walking_exp_matlab/subject02_walking17_run.trc																																																																																																																																																							
DataRate	CameraRate	NumFrames	NumMarkers	Units	OrigDataRate	OrigDataStartFrame	OrigNumFrames																																																																																																																																																			
100	100	7	51	mm	100	259	112																																																																																																																																																			
Frame#	Time	LSHO			RELB			LANK			LTOE			LUPA			RUPA			RWRB			LKNE			RSHO			RFIN			RFRM			RASI			LTHI			LWRB			RTHI			LASI			LFHD			RKNE			LELB			LTIB			RWRA			STRN			RTIB			RFHD			RANK			RBHD			RTOE			RHEE			C7			LHEE			LFRM			CLAV			LWRA			LBHD			RBAK			LFIN			T10			LPSI			RPSI			*39			*40			*41			*42			*43			*44			*45			*46			*47			*48			*49			*50		
		X1	Y1	Z1	X2	Y2	Z2	X3	Y3	Z3	X4	Y4	Z4	X5	Y5	Z5	X6	Y6	Z6	X7	Y7	Z7	X8	Y8	Z8	X9	Y9	Z9	X10	Y10	Z10	X11	Y11	Z11	X12	Y12	Z12	X13	Y13	Z13	X14	Y14	Z14	X15	Y15	Z15	X16	Y16	Z16	X17	Y17	Z17	X18	Y18	Z18	X19	Y19	Z19	X20	Y20	Z20	X21	Y21	Z21	X22	Y22	Z22	X23	Y23	Z23	X24	Y24	Z24	X25	Y25	Z25	X26	Y26	Z26	X27	Y27	Z27	X28	Y28	Z28	X29	Y29	Z29	X30	Y30	Z30	X31	Y31	Z31	X32	Y32	Z32	X33	Y33	Z33	X34	Y34	Z34	X35	Y35	Z35	X36	Y36	Z36	X37	Y37	Z37	X38	Y38	Z38	X39	Y39	Z39	X40	Y40	Z40	X41	Y41	Z41	X42	Y42	Z42	X43	Y43	Z43	X44	Y44	Z44	X45	Y45	Z45	X46	Y46	Z46	X47	Y47	Z47	X48	Y48	Z48	X49	Y49	Z49	X50	Y50	Z50	X51	Y51	Z51
																																																																																																																																																										
29	0.28	-908.97632	1403.01892	-220.48984	-1109.58032	1252.56018	338.45227	-1276.01123	71.41209	-60.59634	-1127.96423	28.60945	-66.51566	-869.85004	1211.71021	-266.50812	-1046.84546	1355.40613	252.10995	-1055.56775	1000.17316	324.20657	-1063.87341	415.31735	-118.43871	-920.55896	1438.71411	133.10713	-999.0824	974.04974	296.45786	-1079.61816	1126.06287	334.87274	-965.96326	900.74365	102.70116	-1043.94824	611.258	-171.5574	-720.45618	1260.17139	-67.96723	-955.27887	640.49707	195.99673	-994.16626	898.04767	-163.22058	-844.21368	1674.66882	-115.59096	-894.75714	459.07822	167.59917	-806.4292	1087.76086	-235.41382	-1180.13281	262.75473	-112.4946	-1036.70874	1020.78534	272.89597	-871.3158	1185.07019	-27.61935	-1054.52991	390.73184	165.64774	-847.93311	1659.35291	28.9413	-1223.35938	295.33551	128.09712	-973.87952	1555.99121	12.98566	-1180.53943	141.76213	139.02589	-1286.24011	288.44983	69.22952	-994.01056	1466.29114	-53.69299	-1323.1095	52.88021	-10.76502	-750.25067	1167.56641	-140.20444	-870.70178	1367.19568	-51.40125	-768.54156	1285.71924	-82.27599	-957.25293	1575.37073	-128.48563	-1093.6759	1329.06677	22.89826	-716.24274	1323.26184	-42.93927	-1120.85535	1230.83386	-21.08808	-1173.3147	1006.88141	-47.36948	-1169.56787	1007.12067	59.8967	2845.29834	1034.5199	-3360.4436	NaN	NaN	NaN	NaN	NaN	NaN	NaN	NaN	NaN	NaN	NaN	NaN	NaN	NaN	NaN	-961.81927	1719.02319	-32.31456	NaN	NaN	NaN	NaN	NaN	NaN	NaN	NaN	NaN	NaN	NaN	NaN	NaN	NaN	NaN
30	0.29	-865.32446	1409.63623	-214.37987	-1082.69067	1262.19397	339.69528	-1273.86292	77.34741	-62.91588	-1128.45435	28.23692	-66.78949	-818.19025	1224.17078	-264.07675	-1016.8913	1362.82605	251.70215	-1029.36523	1009.48059	329.00903	-1052.51575	414.32205	-117.7945	-887.22076	1442.17114	136.34879	-971.6106	983.57257	304.10706	-1053.35205	1135.8512	337.92725	-925.90729	908.21466	110.71582	-1019.13422	609.57642	-166.93365	-680.06165	1271.83191	-60.3062	-902.60425	652.61975	198.80864	-950.35828	898.19452	-156.98561	-804.01074	1677.68665	-110.49712	-830.802	472.38773	170.02791	-752.40021	1101.09912	-234.73741	-1174.24463	269.86932	-112.13647	-1008.39783	1029.49109	277.26538	-830.57446	1188.9231	-21.70948	-984.62946	386.01364	173.27353	-808.70197	1663.22302	34.06258	-1144.04285	273.76083	140.44145	-934.97137	1560.23315	17.84473	-1084.60242	126.06716	150.33469	-1207.39563	260.42599	82.96371	-956.17413	1468.74988	-51.22504	-1322.34192	62.55669	-13.82628	-703.75171	1180.14612	-136.39622	-831.23682	1371.37732	-45.93212	-728.39636	1295.73108	-75.45151	-917.37329	1578.86011	-123.62917	-1055.0874	1330.97913	23.16751	-679.77435	1334.07349	-33.45646	-1080.5199	1232.2981	-21.70135	-1131.36768	1007.37451	-48.01218	-1129.45032	1009.7251	58.19081	2845.1499	1034.48425	-3360.35986	NaN	NaN	NaN	NaN	NaN	NaN	NaN	NaN	NaN	NaN	NaN	NaN	NaN	NaN	NaN	-922.03699	1722.95313	-28.40808	NaN	NaN	NaN	NaN	NaN	NaN	NaN	NaN	NaN	NaN	NaN	NaN	NaN	NaN	NaN
31	0.3	-822.50812	1417.59692	-207.76646	-1055.42896	1270.97827	339.8508	-1270.89746	86.81542	-66.80213	-1128.22986	27.8709	-66.88705	-768.3468	1236.60974	-261.94904	-986.21948	1370.55237	252.30673	-1001.2226	1018.43781	332.17419	-1038.70984	418.20081	-118.02789	-854.46075	1446.67761	140.09676	-942.19275	993.06232	310.1778	-1025.65979	1145.27783	340.00266	-885.08032	917.02435	117.46236	-995.7973	610.22418	-163.51405	-640.22174	1279.90576	-53.29436	-851.60461	665.48071	201.37999	-902.94012	905.32343	-149.53339	-763.89355	1681.61914	-105.27335	-770.4165	486.38745	173.03018	-700.89752	1114.70569	-237.04158	-1165.70923	278.84512	-113.36308	-977.76251	1038.66064	282.0954	-789.49207	1193.66125	-16.33383	-915.05823	380.87659	181.14525	-769.53284	1667.76208	39.7422	-1062.44592	251.92413	151.88152	-896.10175	1565.87195	23.09857	-987.40387	111.69463	161.41095	-1125.15686	232.0078	95.68855	-918.29156	1471.88013	-48.36669	-1319.90918	75.23515	-18.7236	-658.39319	1190.83154	-134.04272	-791.78552	1376.74011	-39.94899	-689.07996	1302.84058	-68.537	-877.81604	1583.71423	-118.28761	-1016.28766	1333.04456	22.698	-643.19025	1340.70203	-23.65383	-1039.5343	1234.3092	-23.23848	-1088.32666	1008.14557	-49.37937	-1087.69092	1012.93524	56.91736	2845.99243	1034.5238	-3357.17822	NaN	NaN	NaN	NaN	NaN	NaN	NaN	NaN	NaN	NaN	NaN	NaN	NaN	NaN	NaN	-881.97974	1728.36096	-23.99963	NaN	NaN	NaN	NaN	NaN	NaN	NaN	NaN	NaN	NaN	NaN	NaN	NaN	NaN	NaN
32	0.31	-780.12714	1426.36218	-201.05301	-1027.50183	1278.85962	339.29581	-1265.55591	98.78173	-71.44281	-1127.69849	27.66522	-67.3906	-720.67102	1249.82886	-260.84714	-954.81116	1377.65491	253.40297	-970.79907	1027.38159	334.52606	-1021.35992	424.49152	-118.52092	-821.41351	1451.51489	143.80719	-911.0918	1002.43396	315.62061	-996.70099	1153.92383	341.01038	-845.13318	925.91125	121.58564	-970.55353	614.27661	-161.75142	-600.60455	1284.21667	-46.91121	-803.62482	678.16925	204.2782	-855.99921	913.29987	-141.38689	-723.44904	1686.24182	-98.82955	-714.18427	500.15576	176.6216	-651.63531	1128.12061	-241.6722	-1154.3457	288.93103	-115.56736	-946.01184	1047.34302	285.25232	-748.82581	1199.22119	-12.07269	-845.67664	375.62228	188.74272	-730.1322	1672.69324	45.72004	-978.52209	230.8093	162.43024	-857.78186	1571.93005	28.76017	-888.89301	98.9184	172.44095	-1038.96008	203.25027	106.54704	-879.86267	1475.80786	-45.16131	-1314.94214	90.74834	-24.47669	-614.06042	1199.84961	-133.32378	-752.23102	1382.64807	-33.62946	-649.58875	1306.80469	-63.10038	-838.39374	1589.38159	-112.58935	-976.92059	1335.50952	21.59446	-606.44275	1343.11108	-14.03938	-997.99487	1236.83533	-25.636	-1044.25781	1009.3866	-51.4095	-1044.86487	1016.50586	56.13298	2845.13452	1034.21399	-3360.45898	NaN	NaN	NaN	NaN	NaN	NaN	NaN	NaN	NaN	NaN	NaN	NaN	NaN	NaN	NaN	-841.59985	1734.30872	-18.77749	NaN	NaN	NaN	NaN	NaN	NaN	NaN	NaN	NaN	NaN	NaN	NaN	NaN	NaN	NaN
33	0.32	-738.29791	1435.09473	-194.30038	-998.54633	1285.68945	338.15134	-1256.76892	112.78443	-76.51341	-1126.98145	27.71625	-68.05775	-674.69598	1262.56909	-261.03262	-922.88855	1384.24402	254.93994	-939.71436	1034.96362	335.87283	-1001.86554	432.56073	-119.61226	-788.15247	1456.75916	147.45161	-878.57007	1011.01208	320.08966	-966.50763	1161.68494	341.20416	-803.21265	935.32666	125.33305	-944.06403	621.46057	-160.39661	-560.38184	1285.13025	-41.41176	-757.98291	689.35889	207.64436	-810.09406	918.21118	-135.22302	-683.34906	1691.09619	-92.52172	-661.20215	512.91968	180.74971	-604.45251	1141.20642	-248.02586	-1138.92224	300.50314	-118.7199	-912.4353	1055.54932	287.80136	-709.32892	1205.1792	-8.84886	-777.23059	370.41339	195.60634	-690.90186	1677.90137	52.13757	-892.14441	210.17416	172.07222	-819.17871	1578.53381	34.75782	-788.70483	88.33908	182.59828	-949.42963	175.57112	116.2028	-840.85468	1480.44604	-41.75315	-1305.08472	109.37968	-30.16436	-570.80017	1206.72778	-134.04211	-712.75568	1388.56433	-26.98173	-610.24548	1307.21484	-56.06484	-799.21765	1595.54077	-106.53637	-937.8927	1338.34192	20.18878	-569.03693	1341.09949	-4.06288	-956.30957	1239.63989	-28.25569	-999.22333	1011.13867	-53.58934	-1001.776	1020.35883	55.18429	2846.07617	1034.38379	-3357.17993	NaN	NaN	NaN	NaN	NaN	NaN	NaN	NaN	NaN	NaN	NaN	NaN	NaN	NaN	NaN	-801.2005	1740.81116	-13.05959	NaN	NaN	NaN	NaN	NaN	NaN	NaN	NaN	NaN	NaN	NaN	NaN	NaN	NaN	NaN
34	0.33	-696.79016	1443.41968	-187.63257	-968.4989	1291.20288	336.60339	-1244.24219	129.2838	-81.39114	-1125.81104	27.85919	-68.45425	-629.90393	1274.82202	-261.65179	-890.45166	1389.95557	256.45758	-906.93988	1041.34387	336.07053	-979.3714	442.23615	-121.40679	-754.64276	1462.13916	150.92401	-844.79767	1018.56836	324.18829	-935.04553	1168.25781	340.75189	-761.47217	944.14636	127.13884	-913.64758	630.31189	-159.43051	-520.42371	1282.40259	-36.32509	-712.93329	699.14984	211.27214	-764.31842	922.10321	-131.27682	-643.42407	1696.27722	-86.17739	-612.20093	523.67413	185.80276	-559.01361	1153.80469	-255.54767	-1119.84509	314.01126	-122.02051	-877.28107	1062.86804	290.79886	-668.05487	1211.93481	-4.12709	-710.04425	365.01483	202.95354	-651.33783	1683.0343	58.38533	-803.72424	190.91904	180.5302	-780.65228	1584.77893	41.1514	-687.81799	80.37576	190.9144	-856.91925	150.24731	124.89153	-801.19507	1485.06323	-38.18665	-1291.62463	131.12546	-35.03048	-528.27161	1211.58813	-135.81755	-673.14551	1394.72766	-20.41245	-570.08087	1304.74805	-50.11935	-760.22693	1601.65527	-100.18175	-898.58331	1341.39258	19.05056	-530.62384	1334.86426	5.86652	-914.48181	1242.60657	-30.4455	-953.08386	1013.29358	-55.82795	-959.21655	1024.25903	54.04233	2845.20581	1034.3894	-3360.35767	NaN	NaN	NaN	NaN	NaN	NaN	NaN	NaN	NaN	NaN	NaN	NaN	NaN	NaN	NaN	-760.85138	1747.03003	-6.93818	NaN	NaN	NaN	NaN	NaN	NaN	NaN	NaN	NaN	NaN	NaN	NaN	NaN	NaN	NaN
35	0.34	-655.70105	1451.38538	-181.13171	-937.19781	1295.32043	334.76428	-1227.39392	146.44304	-85.78049	-1124.0708	27.88086	-69.59647	-587.39716	1286.22864	-264.45291	-857.6095	1394.69116	257.9762	-872.77374	1046.36902	334.98489	-953.61725	453.3244	-123.29594	-720.77356	1467.3949	154.41835	-809.56415	1024.8313	327.7597	-902.23755	1173.44153	339.56152	-717.4024	952.65894	128.79372	-877.59906	638.78174	-159.07213	-479.79825	1275.76868	-32.5653	-668.51361	708.04834	214.80656	-717.98114	926.49164	-127.40548	-603.90393	1700.85779	-79.59458	-566.82782	531.82837	191.17212	-515.1842	1165.72424	-263.41733	-1098.1814	328.56421	-124.37096	-840.43781	1069.17615	292.50043	-627.03455	1218.3949	0.82777	-644.42578	359.61691	211.03253	-612.02368	1688.13245	64.88402	-714.41907	174.20938	187.92999	-741.86505	1590.83362	47.53679	-587.02997	75.59634	197.70129	-761.70715	127.63044	131.69392	-761.6109	1489.86658	-34.50592	-1271.03394	151.99519	-38.04565	-486.07986	1214.09961	-138.32542	-633.64166	1400.89941	-13.99401	-529.66382	1299.00781	-45.00511	-721.30365	1607.41809	-93.71127	-859.02863	1344.70532	18.28256	-491.13464	1323.73206	14.87848	-872.70313	1245.83411	-31.85553	-906.29803	1016.27155	-58.01688	-917.05872	1028.16296	53.10747	2845.98682	1034.7063	-3357.23633	NaN	NaN	NaN	NaN	NaN	NaN	NaN	NaN	NaN	NaN	NaN	NaN	NaN	NaN	NaN	-720.91095	1752.94373	-0.54216	NaN	NaN	NaN	NaN	NaN	NaN	NaN	NaN	NaN	NaN	NaN	NaN	NaN	NaN	NaN
